<svg version="1.1" id="Layer_1" xmlns="http://www.w3.org/2000/svg" xmlns:xlink="http://www.w3.org/1999/xlink" x="0px" y="0px"
	 width="100%" viewBox="0 0 1024 1024" enable-background="new 0 0 1024 1024" xml:space="preserve">
<path fill="#000000" opacity="1.000000" stroke="none" 
	d="
M912.346497,579.000122 
	C912.334656,624.165344 912.199890,668.830872 912.353027,713.495483 
	C912.509827,759.225159 898.052307,799.551392 867.790833,833.860168 
	C839.465576,865.973877 803.409058,883.947144 761.173828,889.259460 
	C739.315674,892.008667 717.237305,890.303711 695.263916,890.323853 
	C561.269653,890.446411 427.275146,890.349243 293.280731,890.379028 
	C264.893005,890.385315 238.997864,881.743347 214.284485,868.481750 
	C177.009735,848.479431 152.605225,817.281372 136.651260,778.962341 
	C129.191681,761.045593 124.679672,742.247131 124.670723,722.657471 
	C124.609779,589.161865 124.601662,455.666290 124.575188,322.170715 
	C124.572250,307.360626 123.947884,292.555878 124.625023,277.739136 
	C125.899406,249.853973 134.175278,224.114487 148.521088,200.351273 
	C164.390854,174.063675 185.437088,152.770599 212.052689,137.299713 
	C233.300583,124.948921 256.126343,117.207390 280.681793,114.512085 
	C289.181793,113.579094 297.638733,113.684425 306.115845,113.682480 
	C451.277985,113.649231 596.442017,113.263794 741.601135,113.928352 
	C785.727234,114.130371 824.306274,130.720001 856.895996,160.803162 
	C878.554871,180.796158 893.803284,204.988586 903.437561,232.616425 
	C909.090515,248.827164 912.272766,265.742981 912.288452,283.012695 
	C912.377869,381.508453 912.342773,480.004303 912.346497,579.000122 
M812.806396,807.306152 
	C841.851013,782.011963 855.654785,749.853699 855.663574,711.596924 
	C855.695801,571.271301 855.658813,430.945648 855.690308,290.620026 
	C855.691895,283.601593 855.035522,276.694702 853.819946,269.785980 
	C843.665283,212.072678 794.933350,170.494049 736.219604,170.408401 
	C590.561462,170.195923 444.902863,170.325867 299.244415,170.285110 
	C292.220734,170.283142 285.308167,171.030655 278.406067,172.262863 
	C220.769836,182.552399 180.905365,233.715393 181.308945,287.817871 
	C181.384781,297.983063 181.238464,308.149750 181.234253,318.315735 
	C181.183167,441.641449 181.073334,564.967224 181.174515,688.292786 
	C181.187729,704.399658 180.168808,720.546021 183.144958,736.610535 
	C193.758972,793.902527 242.428116,834.642944 300.675354,834.645325 
	C446.000824,834.651245 591.326355,834.725891 736.651733,834.582703 
	C764.868286,834.554932 790.350159,825.974060 812.806396,807.306152 
z"/>
<path fill="#000000" opacity="1.000000" stroke="none" 
	d="
M670.751953,258.618896 
	C710.819702,249.390701 750.467957,240.192780 790.137024,231.085434 
	C795.417053,229.873245 796.951416,231.784958 795.189697,237.073563 
	C778.410339,287.441833 761.678284,337.826050 744.782166,388.155212 
	C727.991760,438.169464 711.031799,488.126862 694.129883,538.103699 
	C693.276978,540.625671 692.352356,543.130798 691.304138,545.576477 
	C690.675720,547.042725 690.193604,549.025757 688.062134,548.839172 
	C685.910828,548.650879 685.900635,546.737549 685.541809,545.085388 
	C684.863159,541.959778 684.796143,538.812805 684.798767,535.641846 
	C684.826660,502.143585 684.855591,468.645294 684.822388,435.147095 
	C684.819824,432.563690 685.418030,429.819946 683.499451,426.963654 
	C678.918152,429.872070 675.500671,433.937256 671.777527,437.565552 
	C630.490967,477.800385 589.302002,518.135315 548.031189,558.386353 
	C526.921448,578.974548 505.700012,599.448181 484.529724,619.974426 
	C484.170837,620.322388 483.793610,620.656372 483.471497,621.036499 
	C482.224762,622.507629 479.835236,623.629639 480.611847,625.901184 
	C481.547302,628.637207 484.299042,627.614136 486.298828,627.616394 
	C537.296143,627.675293 588.293701,627.598694 639.290894,627.705627 
	C665.625916,627.760864 686.397827,648.709778 686.251221,674.722961 
	C686.109619,699.854980 665.603455,720.271790 640.143555,720.308350 
	C575.813782,720.400696 511.483826,720.367737 447.153931,720.376648 
	C381.824249,720.385742 316.494568,720.384888 251.164871,720.388367 
	C249.026489,720.388489 246.888123,720.388367 244.848602,720.388367 
	C244.127258,717.495911 246.090790,716.579102 247.287277,715.390015 
	C283.795868,679.104431 320.333984,642.848572 356.880493,606.601135 
	C390.001495,573.751221 423.085327,540.863586 456.280762,508.089081 
	C494.097778,470.751648 532.020447,433.521240 569.895508,396.242615 
	C570.607300,395.542053 571.370422,394.876526 571.980957,394.094269 
	C572.793091,393.053894 573.730896,391.930939 573.031494,390.490265 
	C572.420105,389.230530 571.114136,389.329102 569.959290,389.288208 
	C568.627502,389.241089 567.293274,389.259521 565.960083,389.259918 
	C509.796387,389.276764 453.626953,388.834595 397.471649,389.530151 
	C373.682007,389.824860 350.162292,371.532715 349.066620,345.385681 
	C347.943390,318.580444 366.387939,296.342773 393.594452,295.815094 
	C429.079285,295.126892 464.589020,295.463379 500.085083,295.739349 
	C514.145569,295.848633 527.292542,291.550415 540.681396,288.546051 
	C583.955750,278.835693 627.127686,268.668579 670.751953,258.618896 
z"/>
</svg>